0
SECTION
2
HEADER
9
$INSUNITS
70
4
9
$ACADVER
1
AC1014
9
$HANDSEED
5
FFFF
0
ENDSEC
0
SECTION
2
TABLES
0
TABLE
2
VPORT
5
8
100
AcDbSymbolTable
0
ENDTAB
0
TABLE
2
LTYPE
5
5
100
AcDbSymbolTable
0
LTYPE
5
14
100
AcDbSymbolTableRecord
100
AcDbLinetypeTableRecord
2
BYBLOCK
70
0
0
LTYPE
5
15
100
AcDbSymbolTableRecord
100
AcDbLinetypeTableRecord
2
BYLAYER
70
0
0
ENDTAB
0
TABLE
2
LAYER
5
2
100
AcDbSymbolTable
70
2
0
LAYER
5
50
100
AcDbSymbolTableRecord
100
AcDbLayerTableRecord
2
0
70
0
6
CONTINUOUS
0
ENDTAB
0
TABLE
2
STYLE
5
3
100
AcDbSymbolTable
70
1
0
STYLE
5
11
100
AcDbSymbolTableRecord
100
AcDbTextStyleTableRecord
2
STANDARD
70
0
0
ENDTAB
0
TABLE
2
VIEW
5
6
100
AcDbSymbolTable
70
0
0
ENDTAB
0
TABLE
2
UCS
5
7
100
AcDbSymbolTable
70
0
0
ENDTAB
0
TABLE
2
APPID
5
9
100
AcDbSymbolTable
70
2
0
APPID
5
12
100
AcDbSymbolTableRecord
100
AcDbRegAppTableRecord
2
ACAD
70
0
0
ENDTAB
0
TABLE
2
DIMSTYLE
5
A
100
AcDbSymbolTable
70
1
0
ENDTAB
0
TABLE
2
BLOCK_RECORD
5
1
100
AcDbSymbolTable
70
1
0
BLOCK_RECORD
5
1F
100
AcDbSymbolTableRecord
100
AcDbBlockTableRecord
2
*MODEL_SPACE
0
BLOCK_RECORD
5
1B
100
AcDbSymbolTableRecord
100
AcDbBlockTableRecord
2
*PAPER_SPACE
0
ENDTAB
0
ENDSEC
0
SECTION
2
BLOCKS
0
BLOCK
5
20
100
AcDbEntity
100
AcDbBlockBegin
2
*MODEL_SPACE
0
ENDBLK
5
21
100
AcDbEntity
100
AcDbBlockEnd
0
BLOCK
5
1C
100
AcDbEntity
100
AcDbBlockBegin
2
*PAPER_SPACE
0
ENDBLK
5
1D
100
AcDbEntity
100
AcDbBlockEnd
0
ENDSEC
0
SECTION
2
ENTITIES
0
LWPOLYLINE
5
100
100
AcDbEntity
8
0
100
AcDbPolyline
90
20
70
1
43
0.0
10
8.4380000000000024
20
-8.4999999999999964
10
8.4380000000000024
20
-7.0000000000000107
10
-8.4379999999999988
20
-7.0000000000000107
10
-8.4379999999999953
20
-8.4999999999999964
42
-0.41421356237309503
10
-8.9380000000000024
20
-9.0000000000000036
10
-14.938000000000002
20
-8.9999999999999964
42
-0.41421356237309503
10
-15.438000000000002
20
-8.4999999999999964
10
-15.438000000000002
20
-7.0000000000000107
10
-16.025000000000002
20
-7.0000000000000036
42
-0.41421356237309503
10
-16.525000000000002
20
-6.5000000000000036
10
-16.524999999999991
20
6.5000000000000036
42
-0.41421356237309503
10
-16.025000000000002
20
6.9999999999999929
10
16.024999999999999
20
7.0000000000000062
42
-0.41421356237309503
10
16.525000000000002
20
6.5000000000000036
10
16.525000000000006
20
-6.5000000000000036
42
-0.41421356237309503
10
16.024999999999999
20
-7.0000000000000107
10
15.437999999999995
20
-7.0000000000000107
10
15.438000000000006
20
-8.4999999999999964
42
-0.41421356237309503
10
14.937999999999999
20
-9.0000000000000036
10
8.9380000000000024
20
-8.9999999999999947
42
-0.41421356237309503
0
LWPOLYLINE
5
101
100
AcDbEntity
8
0
100
AcDbPolyline
90
20
70
1
43
0.0
10
15.938000000000006
20
-8.4999999999999964
42
-0.41421356237309503
10
14.937999999999999
20
-9.5000000000000036
10
8.9380000000000024
20
-9.4999999999999947
42
-0.41421356237309503
10
7.9380000000000024
20
-8.4999999999999964
10
7.9380000000000015
20
-7.5000000000000107
10
-7.9379999999999997
20
-7.5000000000000107
10
-7.9379999999999935
20
-8.4999999999999964
42
-0.41421356237309503
10
-8.9380000000000024
20
-9.5000000000000036
10
-14.938000000000002
20
-9.4999999999999964
42
-0.41421356237309503
10
-15.938000000000002
20
-8.4999999999999964
10
-15.938000000000002
20
-7.5000000000000107
10
-16.025000000000002
20
-7.5000000000000044
42
-0.41421356237309503
10
-17.025000000000002
20
-6.5000000000000036
10
-17.024999999999991
20
6.5000000000000036
42
-0.41421356237309503
10
-16.025000000000002
20
7.4999999999999929
10
16.024999999999999
20
7.5000000000000071
42
-0.41421356237309503
10
17.025000000000002
20
6.5000000000000036
10
17.025000000000009
20
-6.5000000000000036
42
-0.41421356237309503
10
16.024999999999999
20
-7.5000000000000107
10
15.937999999999997
20
-7.5000000000000107
0
ENDSEC
0
SECTION
2
OBJECTS
0
DICTIONARY
5
C
100
AcDbDictionary
3
ACAD_GROUP
350
D
3
ACAD_MLINESTYLE
350
17
0
DICTIONARY
5
D
100
AcDbDictionary
0
DICTIONARY
5
1A
330
C
100
AcDbDictionary
0
DICTIONARY
5
17
100
AcDbDictionary
0
ENDSEC
0
EOF
