0
SECTION
2
HEADER
9
$INSUNITS
70
4
9
$ACADVER
1
AC1014
9
$HANDSEED
5
FFFF
0
ENDSEC
0
SECTION
2
TABLES
0
TABLE
2
VPORT
5
8
100
AcDbSymbolTable
0
ENDTAB
0
TABLE
2
LTYPE
5
5
100
AcDbSymbolTable
0
LTYPE
5
14
100
AcDbSymbolTableRecord
100
AcDbLinetypeTableRecord
2
BYBLOCK
70
0
0
LTYPE
5
15
100
AcDbSymbolTableRecord
100
AcDbLinetypeTableRecord
2
BYLAYER
70
0
0
ENDTAB
0
TABLE
2
LAYER
5
2
100
AcDbSymbolTable
70
2
0
LAYER
5
50
100
AcDbSymbolTableRecord
100
AcDbLayerTableRecord
2
0
70
0
6
CONTINUOUS
0
ENDTAB
0
TABLE
2
STYLE
5
3
100
AcDbSymbolTable
70
1
0
STYLE
5
11
100
AcDbSymbolTableRecord
100
AcDbTextStyleTableRecord
2
STANDARD
70
0
0
ENDTAB
0
TABLE
2
VIEW
5
6
100
AcDbSymbolTable
70
0
0
ENDTAB
0
TABLE
2
UCS
5
7
100
AcDbSymbolTable
70
0
0
ENDTAB
0
TABLE
2
APPID
5
9
100
AcDbSymbolTable
70
2
0
APPID
5
12
100
AcDbSymbolTableRecord
100
AcDbRegAppTableRecord
2
ACAD
70
0
0
ENDTAB
0
TABLE
2
DIMSTYLE
5
A
100
AcDbSymbolTable
70
1
0
ENDTAB
0
TABLE
2
BLOCK_RECORD
5
1
100
AcDbSymbolTable
70
1
0
BLOCK_RECORD
5
1F
100
AcDbSymbolTableRecord
100
AcDbBlockTableRecord
2
*MODEL_SPACE
0
BLOCK_RECORD
5
1B
100
AcDbSymbolTableRecord
100
AcDbBlockTableRecord
2
*PAPER_SPACE
0
ENDTAB
0
ENDSEC
0
SECTION
2
BLOCKS
0
BLOCK
5
20
100
AcDbEntity
100
AcDbBlockBegin
2
*MODEL_SPACE
0
ENDBLK
5
21
100
AcDbEntity
100
AcDbBlockEnd
0
BLOCK
5
1C
100
AcDbEntity
100
AcDbBlockBegin
2
*PAPER_SPACE
0
ENDBLK
5
1D
100
AcDbEntity
100
AcDbBlockEnd
0
ENDSEC
0
SECTION
2
ENTITIES
0
LWPOLYLINE
5
100
100
AcDbEntity
8
0
100
AcDbPolyline
90
44
70
1
43
0.0
10
-8.8812499999999961
20
2.5250000000000217
42
-0.41421356237309503
10
-9.3812499999999943
20
3.0250000000000199
10
-9.3812500000000032
20
16.025000000000027
42
-0.41421356237309503
10
-8.8812499999999961
20
16.525000000000034
10
4.1187500000000066
20
16.525000000000031
42
-0.41421356237309503
10
4.6187500000000092
20
16.025000000000027
10
4.6187500000000092
20
15.438000000000045
10
6.5000000000000036
20
15.438000000000036
42
-0.41421356237309503
10
7.0000000000000018
20
14.938000000000038
10
7.0000000000000107
20
8.9380000000000592
42
-0.41421356237309503
10
6.5000000000000036
20
8.4380000000000521
10
4.6187500000000092
20
8.4380000000000521
10
4.6187500000000092
20
7.0000000000000284
10
6.5000000000000036
20
7.0000000000000195
42
-0.41421356237309503
10
7.0000000000000018
20
6.5000000000000213
10
6.9999999999999751
20
-6.4999999999999858
42
-0.41421356237309503
10
6.5000000000000036
20
-6.9999999999999574
10
5.9130000000000038
20
-6.9999999999999574
10
5.9130000000000038
20
-8.4379999999999455
10
6.5000000000000036
20
-8.4379999999999544
42
-0.41421356237309503
10
7.0000000000000018
20
-8.9379999999999526
10
7.0000000000000107
20
-14.937999999999967
42
-0.41421356237309503
10
6.5000000000000036
20
-15.437999999999974
10
5.9130000000000082
20
-15.437999999999974
10
5.9130000000000127
20
-16.024999999999956
42
-0.41421356237309503
10
5.4130000000000056
20
-16.524999999999963
10
-0.5869999999999953
20
-16.524999999999956
42
-0.41421356237309503
10
-1.0869999999999935
20
-16.024999999999956
10
-1.0869999999999935
20
-15.437999999999974
10
-2.524999999999995
20
-15.437999999999974
10
-2.5249999999999906
20
-16.024999999999956
42
-0.41421356237309503
10
-3.0249999999999977
20
-16.524999999999963
10
-27.931249999999999
20
-16.524999999999956
42
-0.41421356237309503
10
-28.431249999999999
20
-16.024999999999956
10
-28.431250000000006
20
-3.0249999999999488
42
-0.41421356237309503
10
-27.931249999999999
20
-2.5249999999999417
10
-24.962999999999997
20
-2.5249999999999417
10
-24.963000000000001
20
-1.0249999999999559
42
-0.41421356237309503
10
-24.462999999999994
20
-0.52499999999994884
10
-18.462999999999997
20
-0.5249999999999555
42
-0.41421356237309503
10
-17.962999999999994
20
-1.0249999999999559
10
-17.962999999999994
20
-2.5249999999999417
10
-6.9999999999999929
20
-2.5249999999999417
10
-6.9999999999999929
20
2.5250000000000128
0
LWPOLYLINE
5
101
100
AcDbEntity
8
0
100
AcDbPolyline
90
44
70
1
43
0.0
10
7.5000000000000018
20
-6.4999999999999858
10
7.5000000000000018
20
6.5000000000000213
42
0.41421356237309503
10
6.5000000000000036
20
7.5000000000000284
10
5.1187500000000092
20
7.5000000000000284
10
5.1187500000000092
20
7.9380000000000521
10
6.5000000000000036
20
7.9380000000000521
42
0.41421356237309503
10
7.5000000000000018
20
8.9380000000000592
10
7.5000000000000018
20
14.938000000000038
42
0.41421356237309503
10
6.5000000000000036
20
15.938000000000045
10
5.1187500000000092
20
15.938000000000045
10
5.1187500000000092
20
16.025000000000027
42
0.41421356237309503
10
4.1187500000000066
20
17.025000000000034
10
-8.8812499999999961
20
17.025000000000034
42
0.41421356237309503
10
-9.8812499999999943
20
16.025000000000027
10
-9.8812499999999943
20
3.0250000000000199
42
0.41421356237309503
10
-8.8812499999999961
20
2.0250000000000128
10
-7.4999999999999929
20
2.0250000000000128
10
-7.4999999999999929
20
-2.0249999999999417
10
-17.462999999999994
20
-2.0249999999999417
10
-17.462999999999994
20
-1.0249999999999559
42
0.41421356237309503
10
-18.462999999999997
20
-0.024999999999948813
10
-24.462999999999994
20
-0.024999999999948813
42
0.41421356237309503
10
-25.462999999999994
20
-1.0249999999999559
10
-25.462999999999994
20
-2.0249999999999417
10
-27.931249999999999
20
-2.0249999999999417
42
0.41421356237309503
10
-28.931249999999995
20
-3.0249999999999488
10
-28.931249999999995
20
-16.024999999999956
42
0.41421356237309503
10
-27.931249999999999
20
-17.024999999999963
10
-3.0249999999999977
20
-17.024999999999963
42
0.41421356237309503
10
-2.024999999999995
20
-16.024999999999956
10
-2.024999999999995
20
-15.937999999999974
10
-1.5869999999999935
20
-15.937999999999974
10
-1.5869999999999935
20
-16.024999999999956
42
0.41421356237309503
10
-0.5869999999999953
20
-17.024999999999963
10
5.4130000000000056
20
-17.024999999999963
42
0.41421356237309503
10
6.4130000000000091
20
-16.024999999999956
10
6.4130000000000091
20
-15.937999999999974
10
6.5000000000000036
20
-15.937999999999974
42
0.41421356237309503
10
7.5000000000000018
20
-14.937999999999967
10
7.5000000000000018
20
-8.9379999999999526
42
0.41421356237309503
10
6.5000000000000036
20
-7.9379999999999455
10
6.4130000000000038
20
-7.9379999999999455
10
6.4130000000000038
20
-7.4999999999999574
10
6.5000000000000036
20
-7.4999999999999574
42
0.41421356237309503
0
ENDSEC
0
SECTION
2
OBJECTS
0
DICTIONARY
5
C
100
AcDbDictionary
3
ACAD_GROUP
350
D
3
ACAD_MLINESTYLE
350
17
0
DICTIONARY
5
D
100
AcDbDictionary
0
DICTIONARY
5
1A
330
C
100
AcDbDictionary
0
DICTIONARY
5
17
100
AcDbDictionary
0
ENDSEC
0
EOF
