0
SECTION
2
HEADER
9
$INSUNITS
70
4
9
$ACADVER
1
AC1014
9
$HANDSEED
5
FFFF
0
ENDSEC
0
SECTION
2
TABLES
0
TABLE
2
VPORT
5
8
100
AcDbSymbolTable
0
ENDTAB
0
TABLE
2
LTYPE
5
5
100
AcDbSymbolTable
0
LTYPE
5
14
100
AcDbSymbolTableRecord
100
AcDbLinetypeTableRecord
2
BYBLOCK
70
0
0
LTYPE
5
15
100
AcDbSymbolTableRecord
100
AcDbLinetypeTableRecord
2
BYLAYER
70
0
0
ENDTAB
0
TABLE
2
LAYER
5
2
100
AcDbSymbolTable
70
2
0
LAYER
5
50
100
AcDbSymbolTableRecord
100
AcDbLayerTableRecord
2
0
70
0
6
CONTINUOUS
0
ENDTAB
0
TABLE
2
STYLE
5
3
100
AcDbSymbolTable
70
1
0
STYLE
5
11
100
AcDbSymbolTableRecord
100
AcDbTextStyleTableRecord
2
STANDARD
70
0
0
ENDTAB
0
TABLE
2
VIEW
5
6
100
AcDbSymbolTable
70
0
0
ENDTAB
0
TABLE
2
UCS
5
7
100
AcDbSymbolTable
70
0
0
ENDTAB
0
TABLE
2
APPID
5
9
100
AcDbSymbolTable
70
2
0
APPID
5
12
100
AcDbSymbolTableRecord
100
AcDbRegAppTableRecord
2
ACAD
70
0
0
ENDTAB
0
TABLE
2
DIMSTYLE
5
A
100
AcDbSymbolTable
70
1
0
ENDTAB
0
TABLE
2
BLOCK_RECORD
5
1
100
AcDbSymbolTable
70
1
0
BLOCK_RECORD
5
1F
100
AcDbSymbolTableRecord
100
AcDbBlockTableRecord
2
*MODEL_SPACE
0
BLOCK_RECORD
5
1B
100
AcDbSymbolTableRecord
100
AcDbBlockTableRecord
2
*PAPER_SPACE
0
ENDTAB
0
ENDSEC
0
SECTION
2
BLOCKS
0
BLOCK
5
20
100
AcDbEntity
100
AcDbBlockBegin
2
*MODEL_SPACE
0
ENDBLK
5
21
100
AcDbEntity
100
AcDbBlockEnd
0
BLOCK
5
1C
100
AcDbEntity
100
AcDbBlockBegin
2
*PAPER_SPACE
0
ENDBLK
5
1D
100
AcDbEntity
100
AcDbBlockEnd
0
ENDSEC
0
SECTION
2
ENTITIES
0
LWPOLYLINE
5
100
100
AcDbEntity
8
0
100
AcDbPolyline
90
20
70
1
43
0.0
10
19.181250000000002
20
-6.4999999999999858
10
19.181250000000002
20
6.5000000000000036
42
0.41421356237309503
10
18.681249999999999
20
7.0000000000000107
10
-15.750000000000002
20
7.0000000000000107
42
0.41421356237309503
10
-16.25
20
6.5000000000000036
10
-16.25
20
-6.4999999999999858
42
0.41421356237309503
10
-15.750000000000002
20
-6.9999999999999929
10
-15.163000000000002
20
-6.9999999999999929
10
-15.163000000000002
20
-8.4999999999999787
42
0.41421356237309503
10
-14.663
20
-8.9999999999999858
10
-8.6630000000000003
20
-8.9999999999999858
42
0.41421356237309503
10
-8.1630000000000003
20
-8.4999999999999787
10
-8.1630000000000003
20
-6.9999999999999929
10
8.713000000000001
20
-6.9999999999999929
10
8.713000000000001
20
-8.4999999999999787
42
0.41421356237309503
10
9.213000000000001
20
-8.9999999999999858
10
15.213000000000001
20
-8.9999999999999858
42
0.41421356237309503
10
15.713000000000005
20
-8.4999999999999787
10
15.713000000000005
20
-6.9999999999999929
10
18.681249999999999
20
-6.9999999999999929
42
0.41421356237309503
0
LWPOLYLINE
5
101
100
AcDbEntity
8
0
100
AcDbPolyline
90
20
70
1
43
0.0
10
16.213000000000008
20
-8.4999999999999787
42
-0.41421356237309503
10
15.213000000000001
20
-9.4999999999999858
10
9.213000000000001
20
-9.4999999999999769
42
-0.41421356237309503
10
8.213000000000001
20
-8.4999999999999787
10
8.213000000000001
20
-7.4999999999999929
10
-7.6630000000000003
20
-7.4999999999999929
10
-7.6629999999999932
20
-8.4999999999999787
42
-0.41421356237309503
10
-8.6630000000000003
20
-9.4999999999999858
10
-14.663
20
-9.4999999999999822
42
-0.41421356237309503
10
-15.663000000000002
20
-8.4999999999999787
10
-15.663000000000002
20
-7.4999999999999929
10
-15.750000000000002
20
-7.499999999999984
42
-0.41421356237309503
10
-16.75
20
-6.4999999999999858
10
-16.750000000000011
20
6.5000000000000036
42
-0.41421356237309503
10
-15.750000000000002
20
7.5000000000000107
10
18.681249999999999
20
7.5000000000000071
42
-0.41421356237309503
10
19.681250000000002
20
6.5000000000000036
10
19.681250000000009
20
-6.4999999999999858
42
-0.41421356237309503
10
18.681249999999999
20
-7.4999999999999929
10
16.213000000000005
20
-7.4999999999999929
0
ENDSEC
0
SECTION
2
OBJECTS
0
DICTIONARY
5
C
100
AcDbDictionary
3
ACAD_GROUP
350
D
3
ACAD_MLINESTYLE
350
17
0
DICTIONARY
5
D
100
AcDbDictionary
0
DICTIONARY
5
1A
330
C
100
AcDbDictionary
0
DICTIONARY
5
17
100
AcDbDictionary
0
ENDSEC
0
EOF
